<?xml version="1.0"?>
<svg xmlns="http://www.w3.org/2000/svg" height="64px" viewBox="-1 0 477 477.824" width="64px" class=""><g transform="matrix(0.9991 -4.89418e-16 4.89418e-16 0.9991 0.213664 0.214934)"><path d="m470.511719 194.980469c-19.847657-79.523438-91.617188-136.195313-174.511719-136.195313-45.28125 0-88.578125 16.949219-121.910156 47.722656-9.15625 8.453126-17.296875 17.761719-24.421875 27.710938.941406-7.453125 2.558593-14.90625 4.925781-22.273438 16.6875-51.953124 64.597656-86.859374 119.222656-86.859374 1.140625 0 2.289063.015624 3.433594.046874 5.273438.148438 9.753906-3.824218 10.351562-9.066406l.035157-.304687c.65625-5.761719-3.589844-11-9.375-11.378907-3.882813-.253906-7.773438-.378906-11.644531-.378906-78.511719 0-147.382813 50.183594-171.375 124.875-13.847657 43.109375-10.953126 89.515625 8.152343 130.660156.300781.652344.640625 1.28125.949219 1.925782-.851562-.601563-1.703125-1.191406-2.535156-1.820313-44.496094-33.304687-61.40625-92.574219-42.214844-144 1.878906-5.035156-.257812-10.675781-5.113281-12.992187l-.28125-.136719c-5.222657-2.492187-11.554688-.195313-13.796875 5.140625-31.765625 75.5625-8.273438 163.9375 58.082031 213.613281 27.378906 20.496094 59.277344 32.539063 93.003906 35.234375-11 5.226563-22.890625 8.929688-35.453125 10.734375-5.929687.855469-11.949218 1.285157-17.890625 1.285157-49.140625 0-93.804687-29.1875-113.902343-73.519532-2.171876-4.796875-7.714844-7.070312-12.679688-5.3125l-.285156.101563c-5.472656 1.9375-8.3125 8.054687-6.121094 13.425781 27.46875 67.289062 93.050781 111.792969 166.402344 111.792969 8.542968 0 17.191406-.621094 25.703125-1.847657 44.820312-6.441406 85.261719-29.378906 113.875-64.578124 3.039062-3.738282 5.882812-7.601563 8.589843-11.53125-1.226562 14.96875-5.160156 29.898437-12.054687 44.042968-20.808594 42.691406-65.039063 70.273438-112.679687 70.273438-7.078126 0-14.144532-.605469-21.109376-1.804688-5.1875-.894531-10.175781 2.414063-11.511718 7.507813l-.078125.300781c-1.46875 5.601562 1.976562 11.390625 7.640625 12.585938 12.128906 2.5625 24.507812 3.855468 36.933594 3.855468 68.464843 0 132.035156-39.660156 161.953124-101.035156 19.84375-40.703125 23.582032-87.050781 10.527344-130.496094-2.511718-8.371094-5.621094-16.476562-9.25-24.289062 1.671875 1.5 3.3125 3.042968 4.914063 4.640625 39.296875 39.304687 47.605469 100.375 21.289062 148.542969-2.578125 4.714843-1.261719 10.605468 3.210938 13.585937l.261719.175781c4.816406 3.210938 11.40625 1.835938 14.386718-3.125 42.199219-70.269531 31.523438-161.089844-27.09375-219.699218-24.339844-24.339844-54.480468-40.78125-87.328125-48.160157 9.804688-2.503906 20.035157-3.851562 30.527344-3.851562 55.683594 0 104.816406 37.445312 120.175781 90.261719 1.46875 5.054687 6.632813 8.082031 11.792969 7.050781l.308594-.0625c5.683593-1.125 9.371093-6.753907 7.96875-12.375zm0 0" fill="#4671c6" data-original="#4671C6" class="" data-old_color="#4671c6" style="fill:#2C2C2C"/><path d="m372.980469 233.382812c0 74.449219-60.351563 134.804688-134.800781 134.804688-74.453126 0-134.804688-60.355469-134.804688-134.804688 0-74.449218 60.351562-134.804687 134.804688-134.804687 74.449218 0 134.800781 60.355469 134.800781 134.804687zm0 0" fill="#4671c6" data-original="#4671C6" class="" data-old_color="#4671c6" style="fill:#2C2C2C"/><path d="m327.285156 233.382812c0 49.210938-39.894531 89.105469-89.105468 89.105469-49.214844 0-89.109376-39.894531-89.109376-89.105469 0-49.214843 39.894532-89.109374 89.109376-89.109374 49.210937 0 89.105468 39.894531 89.105468 89.109374zm0 0" fill="#a4c9ff" data-original="#A4C9FF" class="" data-old_color="#a4c9ff" style="fill:#373D46"/><path d="m281.589844 233.382812c0 23.976563-19.4375 43.410157-43.410156 43.410157-23.976563 0-43.414063-19.433594-43.414063-43.410157 0-23.976562 19.4375-43.414062 43.414063-43.414062 23.972656 0 43.410156 19.4375 43.410156 43.414062zm0 0" fill="#e0ebfc" data-original="#E0EBFC" class="" data-old_color="#e0ebfc" style="fill:#374862"/><path d="m206.875 477.824219c-12.667969 0-25.375-1.328125-37.757812-3.941407-3.777344-.796874-6.980469-3.058593-9.019532-6.363281-2.046875-3.316406-2.65625-7.378906-1.667968-11.152343l.082031-.3125c1.859375-7.074219 8.925781-11.648438 16.054687-10.425782 6.726563 1.160156 13.605469 1.75 20.433594 1.75 46.121094 0 88.9375-26.703125 109.082031-68.027344 4.257813-8.730468 7.40625-17.878906 9.421875-27.332031-29.207031 35.472657-70.234375 58.582031-115.667968 65.109375-8.695313 1.253906-17.535157 1.886719-26.273438 1.886719-74.996094 0-141.765625-44.859375-170.105469-114.28125-1.46093725-3.582031-1.3906248-7.515625.207031-11.074219 1.59375-3.550781 4.613282-6.335937 8.285157-7.632812l.285156-.101563c6.902344-2.445312 14.660156.820313 17.65625 7.433594 19.601563 43.234375 62.878906 71.167969 110.257813 71.167969 5.769531 0 11.59375-.417969 17.320312-1.242188 6.832031-.984375 13.5625-2.5625 20.128906-4.714844-28.707031-4.808593-55.925781-16.445312-79.503906-34.097656-67.703125-50.683594-92.117188-140.476562-59.371094-218.363281 1.492188-3.554687 4.316406-6.273437 7.949219-7.660156 3.640625-1.386719 7.742187-1.21875 11.257813.457031l.289062.140625c6.703125 3.195313 9.769531 10.9375 7.132812 18-17.171874 45.996094-4.390624 98.113281 30.945313 131.097656-14.480469-38.664062-15.5625-80.933593-2.855469-120.492187 24.523438-76.351563 94.925782-127.652344 175.183594-127.652344 3.9375 0 7.941406.128906 11.902344.390625 3.855468.25 7.355468 2.035156 9.851562 5.019531 2.5 2.992188 3.679688 6.929688 3.238282 10.800782l-.035157.308593c-.828125 7.273438-7.234375 12.855469-14.441406 12.605469-1.109375-.03125-2.214844-.046875-3.320313-.046875-52.878906 0-99.261718 33.792969-115.417968 84.085937-.585938 1.824219-1.125 3.671876-1.625 5.535157 4.601562-5.347657 9.484375-10.410157 14.605468-15.136719 34.070313-31.457031 78.332032-48.785156 124.625-48.785156 84.570313 0 157.929688 57.253906 178.390626 139.226562.933593 3.742188.300781 7.613282-1.777344 10.898438-2.082032 3.289062-5.46875 5.613281-9.285156 6.375l-.3125.0625c-7.160157 1.429687-14.390626-2.894532-16.414063-9.855469-14.960937-51.449219-62.800781-87.382813-116.335937-87.382813-4.191407 0-8.386719.222657-12.566407.671876 27.09375 8.921874 51.792969 24.109374 72.195313 44.511718 59.804687 59.800782 71.195312 152.15625 27.699218 224.589844-1.988281 3.308594-5.171874 5.597656-8.964843 6.449219-3.796875.855469-7.832031.105469-11.074219-2.058594l-.257812-.167969c-6.183594-4.128906-8.117188-12.222656-4.503907-18.835937 23.34375-42.726563 18.386719-95.605469-11.222656-133.226563.5625 1.695313 1.105469 3.398438 1.613281 5.101563 13.347656 44.414062 9.527344 91.792969-10.757812 133.398437-30.59375 62.75-95.574219 103.289063-165.558594 103.289063zm-34.660156-24.394531c-2.726563 0-5.238282 1.898437-5.964844 4.667968l-.082031.3125c-.441407 1.675782-.179688 3.421875.734375 4.90625.882812 1.425782 2.253906 2.398438 3.867187 2.738282 11.84375 2.503906 23.992188 3.769531 36.109375 3.769531 66.945313 0 129.101563-38.773438 158.359375-98.785157 19.398438-39.796874 23.054688-85.105468 10.292969-127.589843-2.414062-8.035157-5.460938-16.023438-9.046875-23.753907-.800781-1.722656-.28125-3.773437 1.246094-4.902343 1.53125-1.128907 3.640625-1.03125 5.054687.242187 1.835938 1.652344 3.492188 3.21875 5.0625 4.785156 40.253906 40.257813 49.289063 103.292969 21.972656 153.289063-1.613281 2.953125-.789062 6.539063 1.917969 8.34375l.261719.171875c1.453125.96875 3.179688 1.292969 4.882812.910156 1.636719-.371094 3.007813-1.351562 3.855469-2.765625 41.609375-69.28125 30.710938-157.613281-26.492187-214.8125-23.546875-23.546875-53.066406-39.828125-85.375-47.082031-1.804688-.40625-3.097656-1.996094-3.125-3.84375-.027344-1.851562 1.21875-3.476562 3.011718-3.933594 10.339844-2.640625 20.945313-3.980468 31.519532-3.980468 57.070312 0 108.066406 38.304687 124.015625 93.148437.875 3.007813 4.019531 4.875 7.167969 4.246094l.3125-.0625c1.703124-.339844 3.15625-1.339844 4.089843-2.8125.898438-1.417969 1.171875-3.078125.773438-4.679688-19.570313-78.40625-89.738281-133.164062-170.628907-133.164062-44.273437 0-86.605468 16.574219-119.199218 46.664062-8.765625 8.089844-16.796875 17.207031-23.878906 27.101563-1.066407 1.488281-3.003907 2.066406-4.714844 1.394531-1.703125-.667969-2.738282-2.410156-2.507813-4.226563.996094-7.851562 2.707031-15.589843 5.085938-22.992187 17.578125-54.738281 68.710937-91.222656 126.578125-89.585937h.167968c3.078126 0 5.742188-2.390626 6.097657-5.519532l.039062-.3125c.195313-1.726562-.3125-3.417968-1.429687-4.757812-1.078125-1.289063-2.582032-2.0625-4.234375-2.167969-3.789063-.25-7.621094-.375-11.382813-.375-76.765625 0-144.105468 49.070313-167.566406 122.097656-13.539062 42.152344-10.707031 87.523438 7.972656 127.753907.152344.328124.316406.652343.476563.972656l.449219.90625c.792968 1.644531.371093 3.613281-1.027344 4.789062-1.390625 1.175782-3.40625 1.261719-4.890625.203125l-.53125-.375c-.699219-.492187-1.398438-.988281-2.085938-1.5-45.574219-34.121093-63.488281-95.226562-43.566406-148.601562 1.179687-3.152344-.148437-6.582031-3.085937-7.984375l-.289063-.140625c-1.570313-.75-3.335937-.820313-4.960937-.199219-1.566407.597656-2.78125 1.761719-3.417969 3.285156-31.320313 74.496094-7.96875 160.382813 56.789062 208.859375 26.59375 19.910157 58.039063 31.820313 90.925781 34.449219 1.804688.144531 3.289063 1.484375 3.617188 3.261719.328125 1.78125-.582031 3.5625-2.214844 4.335937-11.640625 5.539063-23.957031 9.265625-36.605468 11.085938-6.101563.878906-12.3125 1.324218-18.457032 1.324218-50.515625 0-96.652344-29.78125-117.542968-75.867187-1.292969-2.859375-4.675782-4.265625-7.703126-3.195313l-.289062.101563c-1.640625.582031-2.9375 1.78125-3.652344 3.371094-.691406 1.539062-.722656 3.234375-.097656 4.773437 27.105469 66.398438 90.96875 109.304688 162.699219 109.304688 8.359375 0 16.816406-.609375 25.132812-1.804688 43.820313-6.296875 83.363281-28.726562 111.34375-63.148437 2.78125-3.417969 5.527344-7.105469 8.402344-11.273438 1.027344-1.496093 2.9375-2.105469 4.636719-1.5 1.707031.609375 2.789062 2.292969 2.640625 4.097657-1.308594 15.914062-5.496094 31.210937-12.449219 45.46875-21.476562 44.054687-67.117188 72.519531-116.273438 72.519531-7.285156 0-14.617187-.625-21.792968-1.863281-.339844-.066407-.671875-.09375-1-.09375zm0 0" fill="#3762cc" data-original="#3762CC" class="active-path" style="fill:#2C2C2C" data-old_color="#3762cc"/></g> </svg>
